<?xml version="1.0" encoding="UTF-8"?>
<svg version="1.1" xmlns="http://www.w3.org/2000/svg" width="327" height="300">
<path d="M0 0 C107.91 0 215.82 0 327 0 C327 99 327 198 327 300 C219.09 300 111.18 300 0 300 C0 201 0 102 0 0 Z " fill="#FEFEFE" transform="translate(0,0)"/>
<path d="M0 0 C4.35053592 3.52028098 8.48479945 7.23532683 12.55859375 11.0703125 C13.161875 11.60914063 13.76515625 12.14796875 14.38671875 12.703125 C30.67228218 27.84717697 40.44022128 49.84102556 45.55859375 71.0703125 C45.82414063 72.16085938 46.0896875 73.25140625 46.36328125 74.375 C52.21869821 104.61461909 44.38842714 136.49128339 27.65234375 161.97265625 C23.08423031 168.43508658 17.98451861 174.31823915 12.55859375 180.0703125 C11.98496094 180.69679687 11.41132813 181.32328125 10.8203125 181.96875 C-1.45415853 194.91699868 -17.88147725 203.08093021 -34.44140625 209.0703125 C-35.46363281 209.4621875 -36.48585937 209.8540625 -37.5390625 210.2578125 C-66.42910265 220.39728466 -99.42804957 214.96655132 -126.421875 202.22265625 C-155.35259686 187.95011736 -175.81590919 161.85426451 -186.13378906 131.68505859 C-195.61943433 102.33083203 -193.00166484 70.23659757 -179.41699219 42.57714844 C-164.66386077 14.00031978 -139.90179182 -7.78409847 -109.43017578 -18.30078125 C-71.83028829 -30.19094945 -31.48962062 -23.86286258 0 0 Z " fill="#FEFEFE" transform="translate(244.44140625,59.9296875)"/>
<path d="M0 0 C4.35053592 3.52028098 8.48479945 7.23532683 12.55859375 11.0703125 C13.161875 11.60914063 13.76515625 12.14796875 14.38671875 12.703125 C30.67228218 27.84717697 40.44022128 49.84102556 45.55859375 71.0703125 C45.82414063 72.16085938 46.0896875 73.25140625 46.36328125 74.375 C52.21869821 104.61461909 44.38842714 136.49128339 27.65234375 161.97265625 C23.08423031 168.43508658 17.98451861 174.31823915 12.55859375 180.0703125 C11.98496094 180.69679687 11.41132813 181.32328125 10.8203125 181.96875 C-1.45415853 194.91699868 -17.88147725 203.08093021 -34.44140625 209.0703125 C-35.46363281 209.4621875 -36.48585937 209.8540625 -37.5390625 210.2578125 C-66.42910265 220.39728466 -99.42804957 214.96655132 -126.421875 202.22265625 C-155.35259686 187.95011736 -175.81590919 161.85426451 -186.13378906 131.68505859 C-195.61943433 102.33083203 -193.00166484 70.23659757 -179.41699219 42.57714844 C-164.66386077 14.00031978 -139.90179182 -7.78409847 -109.43017578 -18.30078125 C-71.83028829 -30.19094945 -31.48962062 -23.86286258 0 0 Z M-142.44140625 9.0703125 C-143.43785156 9.90304688 -144.43429688 10.73578125 -145.4609375 11.59375 C-167.8321132 30.88431654 -180.72523295 57.78237068 -183.44140625 87.0703125 C-185.61035347 118.29057889 -174.84967239 147.56090201 -154.44140625 171.0703125 C-138.74991867 189.01551463 -116.71297709 200.6571811 -93.44140625 205.0703125 C-92.46816406 205.29203125 -91.49492187 205.51375 -90.4921875 205.7421875 C-63.03779111 211.40920377 -33.87964078 203.6661993 -10.44140625 189.0703125 C-6.89636617 186.60625002 -3.65719847 183.94613362 -0.44140625 181.0703125 C0.37457031 180.38453125 1.19054687 179.69875 2.03125 178.9921875 C12.94869468 169.61027214 21.09911026 158.87495233 27.55859375 146.0703125 C28.03256592 145.13445312 28.03256592 145.13445312 28.51611328 144.1796875 C41.54959571 117.88558866 43.0657182 87.60466258 34.23828125 59.75390625 C29.70381322 46.43351114 22.7909765 34.69194904 13.55859375 24.0703125 C12.87152344 23.25046875 12.18445313 22.430625 11.4765625 21.5859375 C1.43244342 9.93113986 -9.90043189 2.02846777 -23.44140625 -4.9296875 C-24.41078125 -5.435 -25.38015625 -5.9403125 -26.37890625 -6.4609375 C-33.74788957 -10.05770317 -41.48515141 -12.09102158 -49.44140625 -13.9296875 C-50.39402344 -14.15785156 -51.34664062 -14.38601562 -52.328125 -14.62109375 C-83.77177565 -21.03541906 -118.06875126 -11.34552674 -142.44140625 9.0703125 Z " fill="#6E97A7" transform="translate(244.44140625,59.9296875)"/>
<path d="M0 0 C7.48601597 4.46553347 13.27682626 11.14887525 15.69140625 19.60546875 C16.98957847 30.9099065 15.78162795 40.63297989 8.69140625 49.85546875 C2.50903834 56.27261012 -4.72994772 59.77342808 -13.6105957 60.31616211 C-23.13644511 60.48651219 -30.74024916 58.23041611 -38.19921875 52.03515625 C-44.38900194 45.56401928 -47.59154915 37.41128033 -47.87109375 28.54296875 C-47.48557267 19.26002701 -44.746632 12.22468489 -38.37890625 5.4296875 C-27.14561925 -4.46832199 -13.63827059 -6.48317257 0 0 Z " fill="#6C95A6" transform="translate(188.30859375,95.39453125)"/>
<path d="M0 0 C1.4233581 -0.00711364 2.84671338 -0.01481437 4.27006531 -0.02307129 C7.24644955 -0.03647631 10.22256874 -0.03810356 13.19897461 -0.03222656 C16.98841033 -0.02634172 20.77655984 -0.05688793 24.56574726 -0.09734344 C27.50429475 -0.12336552 30.44253874 -0.12608475 33.38118553 -0.12245178 C34.77686983 -0.12413032 36.17257011 -0.13364918 37.56814003 -0.15159607 C47.81466925 -0.26885526 55.24788369 1.09490006 63.19921875 7.78125 C63.94171875 8.668125 64.68421875 9.555 65.44921875 10.46875 C65.96355469 11.07847656 66.47789062 11.68820313 67.0078125 12.31640625 C73.55430631 20.46420071 73.83349341 27.89814049 73.88671875 38.09375 C73.91958984 39.21265625 73.95246094 40.3315625 73.98632812 41.484375 C74.03992026 49.6498678 74.03992026 49.6498678 71.11328125 53.70703125 C67.85218157 55.86356491 66.28319741 56.20291613 62.44921875 55.46875 C60.14646319 53.6016509 58.77098004 52.11227259 57.44921875 49.46875 C57.34364427 47.79918321 57.29391266 46.12590114 57.2734375 44.453125 C57.23766602 42.94685547 57.23766602 42.94685547 57.20117188 41.41015625 C57.15852271 39.29837652 57.1271 37.18633743 57.10742188 35.07421875 C56.94448899 29.14043059 56.79363393 24.91676808 52.44921875 20.46875 C45.64096278 16.19270128 40.03133143 15.88006664 32.1015625 15.9375 C30.93089737 15.9336731 29.76023224 15.92984619 28.55409241 15.92590332 C26.08903133 15.92319131 23.62394112 15.93050236 21.15893555 15.94726562 C17.39501619 15.96870274 13.63300144 15.94742768 9.86914062 15.921875 C7.46744372 15.92451802 5.065748 15.92964247 2.6640625 15.9375 C0.98412453 15.92535461 0.98412453 15.92535461 -0.72975159 15.91296387 C-7.23003645 15.99066777 -11.27174522 16.58314018 -16.55078125 20.46875 C-21.53139017 25.70851256 -21.1089786 31.19434564 -21.11328125 38.03125 C-21.16825287 50.55692623 -21.16825287 50.55692623 -24.55078125 54.46875 C-27.43939834 55.91305855 -29.34725826 55.84563506 -32.55078125 55.46875 C-35.11109346 53.80942742 -36.12332189 53.06784443 -37.55078125 50.46875 C-38.28271555 46.20945395 -38.20209236 42.02968925 -38.11328125 37.71875 C-38.12423828 36.57664063 -38.13519531 35.43453125 -38.14648438 34.2578125 C-38.04730447 22.7529437 -34.62311476 15.52277889 -26.55078125 7.46875 C-18.4480988 -0.02623127 -10.57529941 -0.00644351 0 0 Z " fill="#6B95A5" transform="translate(154.55078125,163.53125)"/>
<path d="M0 0 C4.3558171 2.22942897 6.9376595 4.89644465 8.94140625 9.3046875 C9.70784569 14.6065521 9.62095852 18.86717308 7.31640625 23.7421875 C3.93207138 27.3937067 1.40031796 29.98285935 -3.71484375 30.65234375 C-8.87436663 30.81184513 -13.01999856 30.853756 -17.05859375 27.3046875 C-21.58795098 22.27206836 -22.42244865 18.41227825 -22.3359375 11.80859375 C-21.77946783 6.78469148 -19.03767999 4.19052743 -15.43359375 0.9296875 C-10.34915264 -1.51837674 -5.39337628 -1.82167168 0 0 Z " fill="#FDFDFD" transform="translate(179.05859375,108.6953125)"/>
</svg>
